<svg xmlns="http://www.w3.org/2000/svg" width="940" height="500" viewBox="0 0 940 500">
  <rect width="940" height="500" fill="#f3f3f3"/>
  <rect x="12" y="12" width="916" height="444" fill="#ffffff" stroke="#b7bcc3"/>
  <rect x="12" y="12" width="916" height="34" fill="#e9edf2" stroke="#b7bcc3"/>
  <text x="24" y="34" font-family="Segoe UI, Arial, sans-serif" font-size="14" fill="#20242a">Rename action</text>
  <text x="512" y="34" font-family="Segoe UI, Arial, sans-serif" font-size="13" font-weight="700" fill="#20242a">Total 4 | Changes 3 | Review 1 | Conflicts 1 | Resolved 1</text>

  <rect x="26" y="62" width="888" height="336" fill="#ffffff" stroke="#c7ccd2"/>
  <rect x="26" y="62" width="888" height="32" fill="#f1f3f5" stroke="#c7ccd2"/>
  <line x1="404" y1="62" x2="404" y2="398" stroke="#d3d7dc"/>
  <line x1="438" y1="62" x2="438" y2="398" stroke="#d3d7dc"/>
  <line x1="784" y1="62" x2="784" y2="398" stroke="#d3d7dc"/>
  <text x="38" y="83" font-family="Segoe UI, Arial, sans-serif" font-size="13" fill="#20242a">Original name</text>
  <text x="415" y="83" font-family="Segoe UI, Arial, sans-serif" font-size="13" fill="#20242a">&gt;</text>
  <text x="450" y="83" font-family="Segoe UI, Arial, sans-serif" font-size="13" fill="#20242a">New name</text>
  <text x="796" y="83" font-family="Segoe UI, Arial, sans-serif" font-size="13" fill="#20242a">Status</text>

  <rect x="26" y="94" width="888" height="42" fill="#fff3cd"/>
  <line x1="26" y1="136" x2="914" y2="136" stroke="#e1e4e8"/>
  <text x="38" y="120" font-family="Segoe UI, Arial, sans-serif" font-size="13" fill="#704900">Series 01.zip</text>
  <text x="415" y="120" font-family="Segoe UI, Arial, sans-serif" font-size="13" fill="#704900">&gt;</text>
  <text x="450" y="120" font-family="Segoe UI, Arial, sans-serif" font-size="13" fill="#704900">Series 01 (2).zip</text>
  <text x="796" y="120" font-family="Segoe UI, Arial, sans-serif" font-size="13" fill="#704900">Conflict</text>

  <rect x="26" y="136" width="888" height="42" fill="#fff9db"/>
  <line x1="26" y1="178" x2="914" y2="178" stroke="#e1e4e8"/>
  <text x="38" y="162" font-family="Segoe UI, Arial, sans-serif" font-size="13" fill="#564100">ㄱ ㅏ ㄴ ㅏ.txt</text>
  <text x="415" y="162" font-family="Segoe UI, Arial, sans-serif" font-size="13" fill="#564100">&gt;</text>
  <text x="450" y="162" font-family="Segoe UI, Arial, sans-serif" font-size="13" fill="#564100">가나.txt</text>
  <text x="796" y="162" font-family="Segoe UI, Arial, sans-serif" font-size="13" fill="#564100">Review</text>

  <rect x="26" y="178" width="888" height="42" fill="#e2f6e8"/>
  <line x1="26" y1="220" x2="914" y2="220" stroke="#e1e4e8"/>
  <text x="38" y="204" font-family="Segoe UI, Arial, sans-serif" font-size="13" fill="#125c36">Sample.zip</text>
  <text x="415" y="204" font-family="Segoe UI, Arial, sans-serif" font-size="13" fill="#125c36">&gt;</text>
  <text x="450" y="204" font-family="Segoe UI, Arial, sans-serif" font-size="13" fill="#125c36">Sample fixed.zip</text>
  <text x="796" y="204" font-family="Segoe UI, Arial, sans-serif" font-size="13" fill="#125c36">Resolved</text>

  <line x1="26" y1="262" x2="914" y2="262" stroke="#e1e4e8"/>
  <text x="38" y="246" font-family="Segoe UI, Arial, sans-serif" font-size="13" fill="#20242a">sample_001.zip</text>
  <text x="415" y="246" font-family="Segoe UI, Arial, sans-serif" font-size="13" fill="#20242a">&gt;</text>
  <text x="450" y="246" font-family="Segoe UI, Arial, sans-serif" font-size="13" fill="#20242a">Sample 001.zip</text>
  <text x="796" y="246" font-family="Segoe UI, Arial, sans-serif" font-size="13" fill="#20242a">Ready</text>

  <rect x="726" y="416" width="96" height="28" rx="2" fill="#e9edf2" stroke="#aeb5bd"/>
  <rect x="828" y="416" width="86" height="28" rx="2" fill="#e9edf2" stroke="#aeb5bd"/>
  <text x="759" y="435" font-family="Segoe UI, Arial, sans-serif" font-size="13" fill="#20242a">Apply</text>
  <text x="851" y="435" font-family="Segoe UI, Arial, sans-serif" font-size="13" fill="#20242a">Cancel</text>
</svg>
