<svg xmlns="http://www.w3.org/2000/svg" width="960" height="620" viewBox="0 0 960 620">
  <rect width="960" height="620" fill="#f5f6f8"/>
  <rect x="1" y="1" width="958" height="618" fill="none" stroke="#b8bec8"/>
  <rect x="0" y="0" width="960" height="42" fill="#ffffff" stroke="#d6dae2"/>
  <text x="16" y="27" font-family="Segoe UI, Arial, sans-serif" font-size="14" fill="#20242a">작업</text>
  <rect x="58" y="9" width="220" height="26" rx="3" fill="#ffffff" stroke="#aeb4bd"/>
  <text x="70" y="27" font-family="Segoe UI, Arial, sans-serif" font-size="13" fill="#20242a">파일이름 자동 교정</text>
  <rect x="292" y="9" width="90" height="26" rx="3" fill="#e9eef6" stroke="#aeb4bd"/>
  <text x="325" y="27" font-family="Segoe UI, Arial, sans-serif" font-size="13" fill="#20242a">실행</text>
  <rect x="392" y="9" width="110" height="26" rx="3" fill="#ffffff" stroke="#aeb4bd"/>
  <text x="421" y="27" font-family="Segoe UI, Arial, sans-serif" font-size="13" fill="#20242a">설정 저장</text>
  <rect x="512" y="9" width="138" height="26" rx="3" fill="#ffffff" stroke="#aeb4bd"/>
  <text x="538" y="27" font-family="Segoe UI, Arial, sans-serif" font-size="13" fill="#20242a">ContextMenu 설치</text>
  <rect x="660" y="9" width="138" height="26" rx="3" fill="#ffffff" stroke="#aeb4bd"/>
  <text x="686" y="27" font-family="Segoe UI, Arial, sans-serif" font-size="13" fill="#20242a">ContextMenu 제거</text>

  <rect x="16" y="58" width="385" height="500" fill="#ffffff" stroke="#d6dae2"/>
  <text x="28" y="84" font-family="Segoe UI, Arial, sans-serif" font-size="15" font-weight="600" fill="#20242a">드래그앤드롭 대상</text>
  <rect x="28" y="100" width="361" height="398" fill="#fcfcfd" stroke="#c9ced8"/>
  <text x="48" y="132" font-family="Segoe UI, Arial, sans-serif" font-size="13" fill="#5b6472">D:\Work\Sample 01화.zip</text>
  <text x="48" y="160" font-family="Segoe UI, Arial, sans-serif" font-size="13" fill="#5b6472">D:\Work\FolderA</text>
  <text x="48" y="188" font-family="Segoe UI, Arial, sans-serif" font-size="13" fill="#5b6472">D:\Work\image.png</text>
  <rect x="28" y="512" width="82" height="28" rx="3" fill="#ffffff" stroke="#aeb4bd"/>
  <text x="45" y="531" font-family="Segoe UI, Arial, sans-serif" font-size="13" fill="#20242a">파일 추가</text>
  <rect x="118" y="512" width="82" height="28" rx="3" fill="#ffffff" stroke="#aeb4bd"/>
  <text x="135" y="531" font-family="Segoe UI, Arial, sans-serif" font-size="13" fill="#20242a">폴더 추가</text>
  <rect x="208" y="512" width="82" height="28" rx="3" fill="#ffffff" stroke="#aeb4bd"/>
  <text x="225" y="531" font-family="Segoe UI, Arial, sans-serif" font-size="13" fill="#20242a">선택 제거</text>
  <rect x="298" y="512" width="64" height="28" rx="3" fill="#ffffff" stroke="#aeb4bd"/>
  <text x="315" y="531" font-family="Segoe UI, Arial, sans-serif" font-size="13" fill="#20242a">비우기</text>

  <rect x="424" y="58" width="520" height="78" fill="#ffffff" stroke="#d6dae2"/>
  <text x="440" y="84" font-family="Segoe UI, Arial, sans-serif" font-size="15" font-weight="600" fill="#20242a">폴더 wrapping / unwrapping</text>
  <rect x="440" y="96" width="470" height="26" rx="3" fill="#ffffff" stroke="#aeb4bd"/>
  <text x="452" y="114" font-family="Segoe UI, Arial, sans-serif" font-size="13" fill="#20242a">자동: 파일은 wrapping, 폴더는 unwrapping</text>

  <rect x="424" y="150" width="520" height="88" fill="#ffffff" stroke="#d6dae2"/>
  <text x="440" y="176" font-family="Segoe UI, Arial, sans-serif" font-size="15" font-weight="600" fill="#20242a">ContextMenu</text>
  <rect x="440" y="190" width="14" height="14" fill="#ffffff" stroke="#7c8796"/>
  <path d="M442 196 L447 202 L454 190" fill="none" stroke="#1f6feb" stroke-width="2"/>
  <text x="462" y="202" font-family="Segoe UI, Arial, sans-serif" font-size="13" fill="#20242a">Explorer ContextMenu 등록</text>
  <rect x="440" y="208" width="470" height="24" rx="3" fill="#ffffff" stroke="#aeb4bd"/>
  <text x="452" y="225" font-family="Segoe UI, Arial, sans-serif" font-size="13" fill="#20242a">묶음형: FileTools 하위 메뉴</text>

  <rect x="424" y="252" width="520" height="220" fill="#ffffff" stroke="#d6dae2"/>
  <text x="440" y="278" font-family="Segoe UI, Arial, sans-serif" font-size="15" font-weight="600" fill="#20242a">자동 재배치 템플릿</text>
  <text x="440" y="313" font-family="Segoe UI, Arial, sans-serif" font-size="13" fill="#5b6472">템플릿</text>
  <rect x="520" y="294" width="260" height="26" rx="3" fill="#ffffff" stroke="#aeb4bd"/>
  <text x="532" y="313" font-family="Segoe UI, Arial, sans-serif" font-size="13" fill="#20242a">제목 초성 분류 (Default)</text>
  <rect x="790" y="294" width="56" height="26" rx="3" fill="#ffffff" stroke="#aeb4bd"/>
  <text x="807" y="313" font-family="Segoe UI, Arial, sans-serif" font-size="13" fill="#20242a">새로</text>
  <rect x="854" y="294" width="56" height="26" rx="3" fill="#ffffff" stroke="#aeb4bd"/>
  <text x="871" y="313" font-family="Segoe UI, Arial, sans-serif" font-size="13" fill="#20242a">삭제</text>
  <text x="440" y="350" font-family="Segoe UI, Arial, sans-serif" font-size="13" fill="#5b6472">ID</text>
  <rect x="520" y="331" width="390" height="26" rx="3" fill="#ffffff" stroke="#aeb4bd"/>
  <text x="532" y="350" font-family="Segoe UI, Arial, sans-serif" font-size="13" fill="#20242a">Default</text>
  <text x="440" y="387" font-family="Segoe UI, Arial, sans-serif" font-size="13" fill="#5b6472">Source</text>
  <rect x="520" y="368" width="130" height="26" rx="3" fill="#ffffff" stroke="#aeb4bd"/>
  <text x="532" y="387" font-family="Segoe UI, Arial, sans-serif" font-size="13" fill="#20242a">Title</text>
  <text x="670" y="387" font-family="Segoe UI, Arial, sans-serif" font-size="13" fill="#5b6472">Transform</text>
  <rect x="750" y="368" width="160" height="26" rx="3" fill="#ffffff" stroke="#aeb4bd"/>
  <text x="762" y="387" font-family="Segoe UI, Arial, sans-serif" font-size="13" fill="#20242a">InitialBucket</text>
  <rect x="750" y="422" width="160" height="30" rx="3" fill="#e9eef6" stroke="#aeb4bd"/>
  <text x="795" y="442" font-family="Segoe UI, Arial, sans-serif" font-size="13" fill="#20242a">템플릿 저장</text>

  <rect x="424" y="488" width="520" height="70" fill="#ffffff" stroke="#d6dae2"/>
  <text x="440" y="514" font-family="Segoe UI, Arial, sans-serif" font-size="15" font-weight="600" fill="#20242a">작업 결과</text>
  <rect x="440" y="526" width="470" height="20" fill="#fcfcfd" stroke="#c9ced8"/>
  <text x="452" y="541" font-family="Segoe UI, Arial, sans-serif" font-size="12" fill="#5b6472">대상 / 적용 / 건너뜀 / 오류 요약 표시</text>
</svg>
